<?xml version="1.0" encoding="utf-8"?>
<!-- Generator: Adobe Illustrator 24.1.1, SVG Export Plug-In . SVG Version: 6.00 Build 0)  -->
<svg version="1.1" xmlns="http://www.w3.org/2000/svg" xmlns:xlink="http://www.w3.org/1999/xlink" x="0px" y="0px"
	 viewBox="0 0 24 24" fill='white' style="enable-background:new 0 0 24 24;" xml:space="preserve">
<style type="text/css">
	.st0{fill:none;}
	.st1{clip-path:url(#SVGID_2_);}
	.st2{fill:none;stroke:#000000;stroke-width:0.25;stroke-miterlimit:10;}
	.st3{opacity:0.4;}
	.st4{clip-path:url(#SVGID_4_);fill:none;stroke:#000000;stroke-width:0.25;stroke-miterlimit:10;}
	.st5{clip-path:url(#SVGID_4_);}
	.st6{display:none;}
	.st7{display:inline;opacity:0.2;}
	.st8{fill:none;stroke:#000000;stroke-width:0.5;stroke-miterlimit:10;}
	.st9{fill:none;stroke:#000000;stroke-linecap:round;stroke-miterlimit:10;}
</style>
<symbol  id="material_x5F_system_x5F_icon_x5F_border" viewBox="0 -48 48 48">
	<rect y="-48" class="st0" width="48" height="48"/>
</symbol>
<symbol  id="material_x5F_system_x5F_icon_x5F_grid" viewBox="0 -48 48 48">
	<g>
		<defs>
			<rect id="SVGID_1_" x="0" y="-48" width="48" height="48"/>
		</defs>
		<clipPath id="SVGID_2_">
			<use xlink:href="#SVGID_1_"  style="overflow:visible;"/>
		</clipPath>
		<g class="st1">
			<g>
				<line class="st2" x1="2" y1="-48" x2="2" y2="0"/>
				<line class="st2" x1="4" y1="-48" x2="4" y2="0"/>
				<line class="st2" x1="6" y1="-48" x2="6" y2="0"/>
				<line class="st2" x1="8" y1="-48" x2="8" y2="0"/>
				<line class="st2" x1="10" y1="-48" x2="10" y2="0"/>
				<line class="st2" x1="12" y1="-48" x2="12" y2="0"/>
				<line class="st2" x1="14" y1="-48" x2="14" y2="0"/>
				<line class="st2" x1="16" y1="-48" x2="16" y2="0"/>
				<line class="st2" x1="18" y1="-48" x2="18" y2="0"/>
				<line class="st2" x1="20" y1="-48" x2="20" y2="0"/>
				<line class="st2" x1="22" y1="-48" x2="22" y2="0"/>
				<line class="st2" x1="24" y1="-48" x2="24" y2="0"/>
				<line class="st2" x1="26" y1="-48" x2="26" y2="0"/>
				<line class="st2" x1="28" y1="-48" x2="28" y2="0"/>
				<line class="st2" x1="30" y1="-48" x2="30" y2="0"/>
				<line class="st2" x1="32" y1="-48" x2="32" y2="0"/>
				<line class="st2" x1="34" y1="-48" x2="34" y2="0"/>
				<line class="st2" x1="36" y1="-48" x2="36" y2="0"/>
				<line class="st2" x1="38" y1="-48" x2="38" y2="0"/>
				<line class="st2" x1="40" y1="-48" x2="40" y2="0"/>
				<line class="st2" x1="42" y1="-48" x2="42" y2="0"/>
				<line class="st2" x1="44" y1="-48" x2="44" y2="0"/>
				<line class="st2" x1="46" y1="-48" x2="46" y2="0"/>
			</g>
			<g>
				<line class="st2" x1="0" y1="-2" x2="48" y2="-2"/>
				<line class="st2" x1="0" y1="-4" x2="48" y2="-4"/>
				<line class="st2" x1="0" y1="-6" x2="48" y2="-6"/>
				<line class="st2" x1="0" y1="-8" x2="48" y2="-8"/>
				<line class="st2" x1="0" y1="-10" x2="48" y2="-10"/>
				<line class="st2" x1="0" y1="-12" x2="48" y2="-12"/>
				<line class="st2" x1="0" y1="-14" x2="48" y2="-14"/>
				<line class="st2" x1="0" y1="-16" x2="48" y2="-16"/>
				<line class="st2" x1="0" y1="-18" x2="48" y2="-18"/>
				<line class="st2" x1="0" y1="-20" x2="48" y2="-20"/>
				<line class="st2" x1="0" y1="-22" x2="48" y2="-22"/>
				<line class="st2" x1="0" y1="-24" x2="48" y2="-24"/>
				<line class="st2" x1="0" y1="-26" x2="48" y2="-26"/>
				<line class="st2" x1="0" y1="-28" x2="48" y2="-28"/>
				<line class="st2" x1="0" y1="-30" x2="48" y2="-30"/>
				<line class="st2" x1="0" y1="-32" x2="48" y2="-32"/>
				<line class="st2" x1="0" y1="-34" x2="48" y2="-34"/>
				<line class="st2" x1="0" y1="-36" x2="48" y2="-36"/>
				<line class="st2" x1="0" y1="-38" x2="48" y2="-38"/>
				<line class="st2" x1="0" y1="-40" x2="48" y2="-40"/>
				<line class="st2" x1="0" y1="-42" x2="48" y2="-42"/>
				<line class="st2" x1="0" y1="-44" x2="48" y2="-44"/>
				<line class="st2" x1="0" y1="-46" x2="48" y2="-46"/>
			</g>
			<g>
				<path d="M47.7-0.2v-47.5H0.2v47.5H47.7 M48,0H0v-48h48V0L48,0z"/>
			</g>
		</g>
	</g>
</symbol>
<symbol  id="material_x5F_system_x5F_icon_x5F_keylines" viewBox="0 -48 48 48">
	<g class="st3">
		<defs>
			<rect id="SVGID_3_" x="0" y="-48" class="st3" width="48" height="48"/>
		</defs>
		<clipPath id="SVGID_4_">
			<use xlink:href="#SVGID_3_"  style="overflow:visible;"/>
		</clipPath>
		<line class="st4" x1="24" y1="0" x2="24" y2="-48"/>
		<line class="st4" x1="48" y1="-24" x2="0" y2="-24"/>
		<line class="st4" x1="48" y1="-16" x2="0" y2="-16"/>
		<line class="st4" x1="48" y1="-32" x2="0" y2="-32"/>
		<line class="st4" x1="32" y1="-48" x2="32" y2="0"/>
		<line class="st4" x1="16" y1="-48" x2="16" y2="0"/>
		<line class="st4" x1="47.7" y1="-0.3" x2="0.2" y2="-47.8"/>
		<line class="st4" x1="0.2" y1="-0.3" x2="47.7" y2="-47.8"/>
		<path class="st4" d="M24-14c-5.5,0-10-4.5-10-10c0-5.5,4.5-10,10-10c5.5,0,10,4.5,10,10C34-18.5,29.5-14,24-14z"/>
		<path class="st4" d="M24-4C12.9-4,4-12.9,4-24c0-11.1,8.9-20,20-20c11.1,0,20,8.9,20,20C44-12.9,35.1-4,24-4z"/>
		<path class="st4" d="M38-6H10c-2.2,0-4-1.8-4-4v-28c0-2.2,1.8-4,4-4h28c2.2,0,4,1.8,4,4v28C42-7.8,40.2-6,38-6z"/>
		<path class="st4" d="M40-8H8c-2.2,0-4-1.8-4-4v-24c0-2.2,1.8-4,4-4h32c2.2,0,4,1.8,4,4l0,24C44-9.8,42.2-8,40-8z"/>
		<path class="st4" d="M40-40v32c0,2.2-1.8,4-4,4H12C9.8-4,8-5.8,8-8v-32c0-2.2,1.8-4,4-4h24C38.2-44,40-42.2,40-40z"/>
		<g class="st5">
			<path d="M47.7-0.3v-47.5H0.2v47.5H47.7 M48,0H0v-48h48V0L48,0z"/>
		</g>
	</g>
</symbol>
<g class="st6">
	<circle id="circle" class="st7" cx="12" cy="12" r="10"/>
	<path id="Rectangle" class="st7" d="M19,21H5c-1.1,0-2-0.9-2-2V5c0-1.1,0.9-2,2-2h14c1.1,0,2,0.9,2,2v14C21,20.1,20.1,21,19,21z"/>
</g>
<g id="Layer_5">
	<path class="st8" d="M11.8,17.5c0.3-0.8,1-2.8,2.9-4.3c2.7-2.2,5.7-2.2,6.5-2.2"/>
	<path class="st8" d="M11.8,17.5c-0.3-0.8-1-2.8-2.9-4.3C6.2,10.9,3.2,11,2.4,11"/>
	<path d="M20.4,21.8c0.5-3.4,1-6.7,1.4-10.1c-1-0.1-4.2-0.5-7.2,1.4c-1.5,0.9-2.4,2.1-2.9,2.9c0,2.4,0,4.8,0,7.2
		c1-0.5,2.4-1.1,4.3-1.4C17.9,21.5,19.4,21.7,20.4,21.8z"/>
	<path d="M3.3,22c-0.5-3.4-1.1-6.7-1.7-10.1c1-0.2,4.1-0.6,7.2,1.3c1.5,0.9,2.4,2,2.9,2.8c0.1,2.4,0.1,4.8,0.2,7.2
		c-1-0.5-2.4-1.1-4.3-1.4C5.8,21.7,4.3,21.8,3.3,22z"/>
	<path class="st9" d="M6.8,9.6C7.5,10,9,10.9,11.1,11c2.9,0.2,5-1,5.8-1.4"/>
	<g>
		<path d="M9,2L9,2c0.3,0,0.7,0,1,0.1c2.6,0.5,4.5,3.1,4.7,6c-2,0.4-3.5,0.6-4.7,0.6c-0.6,0-1-0.1-1.2-0.1c0-0.2,0-0.4,0-0.6
			C8.9,7.4,9,6.8,9,6.4c0.2-1.2,0.4-2.3-0.3-3.5c0-0.1-0.1-0.2-0.1-0.2C8.4,2.5,8.2,2.3,7.9,2.1C8.3,2,8.6,2,9,2 M9,0.5
			c-2.2,0-4.4,1.1-5.9,3C4.3,3.1,5.2,3,5.9,3C7,3,7.3,3.3,7.4,3.5c0,0,0,0,0,0.1c0.6,1.1,0.1,2.2,0,4.3c-0.1,0.8-0.1,1.3,0,1.4
			c0.2,0.4,0.9,0.8,2.6,0.8c1.3,0,3.2-0.2,6.1-0.8c0.4-4.2-2.3-7.9-5.8-8.6C9.8,0.6,9.4,0.5,9,0.5L9,0.5z"/>
	</g>
</g>
<g id="border" class="st6">
	
		<use xlink:href="#material_x5F_system_x5F_icon_x5F_border"  width="48" height="48" id="XMLID_2_" y="-48" transform="matrix(0.5 0 0 -0.5 -1.144415e-04 -8.010902e-05)" style="display:inline;overflow:visible;"/>
</g>
<g id="grid" class="st6">
	
		<use xlink:href="#material_x5F_system_x5F_icon_x5F_grid"  width="48" height="48" id="XMLID_1_" x="0" y="-48" transform="matrix(0.5 0 0 -0.5 -1.144415e-04 -8.010902e-05)" style="display:inline;overflow:visible;opacity:0.15;"/>
</g>
<g id="keylines" class="st6">
	
		<use xlink:href="#material_x5F_system_x5F_icon_x5F_keylines"  width="48" height="48" id="XMLID_3_" x="0" y="-48" transform="matrix(0.5 0 0 -0.5 -1.144415e-04 -8.010902e-05)" style="display:inline;overflow:visible;"/>
</g>
</svg>
